<svg width="47" height="47" viewBox="0 0 47 47" fill="none" xmlns="http://www.w3.org/2000/svg">
<g clip-path="url(#clip0_10_35)">
<path d="M23.5 3.91667V5.875" stroke="#1C274C" stroke-width="6.25" stroke-linecap="round"/>
<path d="M23.5 41.125V43.0833" stroke="#1C274C" stroke-width="6.25" stroke-linecap="round"/>
<path d="M43.0833 23.5H41.125" stroke="#1C274C" stroke-width="6.25" stroke-linecap="round"/>
<path d="M5.87484 23.5H3.9165" stroke="#1C274C" stroke-width="6.25" stroke-linecap="round"/>
<path d="M37.3469 9.65398L36.5776 10.4233" stroke="#1C274C" stroke-width="6.25" stroke-linecap="round"/>
<path d="M10.4217 36.5772L9.65234 37.3466" stroke="#1C274C" stroke-width="6.25" stroke-linecap="round"/>
<path d="M37.3469 37.346L36.5776 36.5768" stroke="#1C274C" stroke-width="6.25" stroke-linecap="round"/>
<path d="M10.4217 10.4228L9.65234 9.65347" stroke="#1C274C" stroke-width="6.25" stroke-linecap="round"/>
<path d="M12.4186 19.5833C11.9856 20.8085 11.75 22.1266 11.75 23.5C11.75 29.9893 17.0107 35.25 23.5 35.25C29.9893 35.25 35.25 29.9893 35.25 23.5C35.25 17.0107 29.9893 11.75 23.5 11.75C22.1266 11.75 20.8085 11.9856 19.5833 12.4186" stroke="#1C274C" stroke-width="6.25" stroke-linecap="round"/>
</g>
<defs>
<clipPath id="clip0_10_35">
<rect width="47" height="47" fill="white"/>
</clipPath>
</defs>
</svg>
